<svg width="120" height="90" viewBox="0 0 120 90" fill="none" xmlns="http://www.w3.org/2000/svg">
<path d="M11.7155 22.4165H15.263V18.0556H20.7988V15.276H15.263V12.4778H21.5513V9.69727H11.7155V22.4165Z" fill="white"/>
<path d="M26.4537 8.93408H23.0492V22.4166H26.4537V8.93408Z" fill="white"/>
<path d="M35.4746 17.3109C35.4746 17.8556 35.3912 18.3037 35.2234 18.6551C35.0566 18.9944 34.8357 19.2427 34.5607 19.3998C34.2857 19.5569 33.9813 19.6359 33.6467 19.6359C33.1334 19.6359 32.7328 19.4723 32.4459 19.145C32.1709 18.8178 32.0334 18.273 32.0334 17.5098V12.5679H28.6289V18.0732C28.6289 19.1032 28.8022 19.9566 29.1487 20.6352C29.5071 21.3018 29.9966 21.7917 30.6181 22.1069C31.2515 22.422 31.9619 22.5791 32.7502 22.5791C33.4909 22.5791 34.1775 22.4034 34.8109 22.052C35.1217 21.8735 35.3957 21.6504 35.635 21.3845V22.4155H38.8782V12.5679H35.4737V17.3099L35.4746 17.3109Z" fill="white"/>
<path d="M45.8907 19.9096C45.5918 19.9096 45.3471 19.8129 45.1564 19.6186C44.9658 19.4122 44.8695 19.1343 44.8695 18.7829V15.5124H47.0915V12.9327H44.8695V10.3706H41.465V12.9327H40.0497V15.5124H41.465V18.8191C41.465 20.0788 41.8115 21.0233 42.5045 21.6536C43.1975 22.2718 44.1646 22.5804 45.4067 22.5804C45.8604 22.5804 46.2968 22.5321 46.7148 22.4354C47.1328 22.3508 47.4848 22.2114 47.7717 22.0171L46.9293 19.6C46.6424 19.8064 46.2959 19.9087 45.8898 19.9087L45.8907 19.9096Z" fill="white"/>
<path d="M53.7117 19.9096C53.4128 19.9096 53.1681 19.8129 52.9774 19.6186C52.7868 19.4122 52.6905 19.1343 52.6905 18.7829V15.5124H54.9125V12.9327H52.6905V10.3706H49.286V12.9327H47.8707V15.5124H49.286V18.8191C49.286 20.0788 49.6325 21.0233 50.3255 21.6536C51.0185 22.2718 51.9856 22.5804 53.2277 22.5804C53.6814 22.5804 54.1178 22.5321 54.5358 22.4354C54.9538 22.3508 55.3057 22.2114 55.5927 22.0171L54.7502 19.6C54.4633 19.8064 54.1168 19.9087 53.7108 19.9087L53.7117 19.9096Z" fill="white"/>
<path d="M63.971 13.0039C63.1827 12.6042 62.3109 12.4043 61.3548 12.4043C60.3392 12.4043 59.4262 12.6228 58.614 13.0588C57.8018 13.4827 57.1629 14.0823 56.6973 14.8576C56.2435 15.6208 56.0162 16.4928 56.0162 17.4745C56.0162 18.4562 56.249 19.3338 56.7147 20.1091C57.1923 20.8723 57.855 21.4775 58.7038 21.9266C59.5637 22.3626 60.5674 22.581 61.7142 22.581C62.6455 22.581 63.4522 22.4481 64.1333 22.1813C64.8143 21.9024 65.3873 21.5026 65.8529 20.982L64.0608 19.0921C63.7263 19.3831 63.3862 19.6006 63.0397 19.7466C62.7051 19.8795 62.299 19.9464 61.8214 19.9464C61.3081 19.9464 60.8663 19.8553 60.4959 19.674C60.1256 19.4807 59.8387 19.2074 59.6361 18.856C59.5545 18.7054 59.494 18.5399 59.4473 18.3651H66.4983C66.5102 18.2322 66.5221 18.0862 66.534 17.9291C66.5459 17.772 66.5523 17.6326 66.5523 17.5108C66.5523 16.4203 66.3195 15.4935 65.8538 14.7312C65.3882 13.9679 64.7612 13.3925 63.9728 13.0048L63.971 13.0039ZM60.2979 15.13C60.6087 14.9487 60.9671 14.8576 61.3732 14.8576C61.7793 14.8576 62.1313 14.9487 62.4301 15.13C62.7408 15.3113 62.9792 15.566 63.1469 15.8932C63.2542 16.0884 63.3229 16.3088 63.3614 16.5477H59.3959C59.4363 16.3162 59.5023 16.1024 59.5994 15.9118C59.7663 15.5725 60 15.3122 60.2979 15.1309V15.13Z" fill="white"/>
<path d="M72.277 12.9677C71.9158 13.1712 71.6124 13.4362 71.363 13.7578V12.5679H68.1199V22.4155H71.5244V17.891C71.5244 17.0311 71.7398 16.4129 72.1697 16.0373C72.5996 15.6497 73.1615 15.4563 73.8536 15.4563C73.9847 15.4563 74.1048 15.4628 74.212 15.4749C74.3312 15.4749 74.4687 15.487 74.6245 15.5111V12.4043C73.7051 12.4043 72.9223 12.5921 72.2779 12.9677H72.277Z" fill="white"/>
<path d="M14.5104 30.7198C14.9523 30.2838 15.472 29.9444 16.0688 29.7018C16.6784 29.4592 17.3347 29.3383 18.0396 29.3383C18.7445 29.3383 19.3596 29.4657 19.9564 29.7195C20.554 29.9621 21.0912 30.3377 21.5688 30.8462L22.7329 29.7018C22.16 29.0473 21.4606 28.5574 20.6365 28.2302C19.8244 27.8909 18.9343 27.7217 17.9672 27.7217C17.0001 27.7217 16.1274 27.8853 15.3153 28.2125C14.515 28.5277 13.8165 28.9813 13.2189 29.5754C12.6212 30.1564 12.1555 30.8415 11.8209 31.6289C11.4864 32.4163 11.3195 33.2828 11.3195 34.2273C11.3195 35.1718 11.4864 36.0382 11.8209 36.8256C12.1555 37.613 12.6157 38.3037 13.2005 38.8968C13.7973 39.4779 14.4967 39.9324 15.2969 40.2597C16.1091 40.5748 16.9928 40.7319 17.9489 40.7319C18.9049 40.7319 19.8244 40.5627 20.6365 40.2234C21.4606 39.8841 22.1591 39.3877 22.7329 38.7332L21.5688 37.5888C21.0912 38.1094 20.5531 38.4971 19.9564 38.7518C19.3587 38.9944 18.7198 39.1153 18.0396 39.1153C17.3594 39.1153 16.6784 38.9944 16.0688 38.7518C15.4711 38.5092 14.9523 38.1708 14.5104 37.7339C14.0686 37.2979 13.7221 36.7828 13.4709 36.1897C13.2317 35.5836 13.1125 34.9301 13.1125 34.2273C13.1125 33.5245 13.2317 32.8765 13.4709 32.2834C13.7221 31.6782 14.0686 31.1567 14.5104 30.7207V30.7198Z" fill="white"/>
<path d="M31.2304 31.5006C30.4897 31.0767 29.6482 30.8647 28.7041 30.8647C27.7599 30.8647 26.9001 31.0767 26.1603 31.5006C25.4197 31.9124 24.8348 32.4879 24.4049 33.227C23.975 33.966 23.7596 34.8138 23.7596 35.7704C23.7596 36.727 23.975 37.5628 24.4049 38.3139C24.8348 39.053 25.4206 39.634 26.1603 40.0579C26.901 40.4818 27.7489 40.6938 28.7041 40.6938C29.6592 40.6938 30.4897 40.4818 31.2304 40.0579C31.983 39.634 32.5678 39.052 32.9858 38.3139C33.4157 37.5749 33.6312 36.727 33.6312 35.7704C33.6312 34.8138 33.4157 33.953 32.9858 33.227C32.5678 32.4879 31.9821 31.9124 31.2304 31.5006ZM31.4807 37.5702C31.2057 38.0787 30.8234 38.4729 30.3339 38.7508C29.8563 39.0297 29.3127 39.1692 28.7032 39.1692C28.0936 39.1692 27.5509 39.0297 27.0724 38.7508C26.5948 38.472 26.2126 38.0787 25.9257 37.5702C25.6387 37.0496 25.4957 36.45 25.4957 35.7714C25.4957 35.0927 25.6387 34.4875 25.9257 33.9911C26.2126 33.4826 26.5948 33.0884 27.0724 32.8105C27.55 32.5316 28.0936 32.3921 28.7032 32.3921C29.3127 32.3921 29.8554 32.5316 30.3339 32.8105C30.8234 33.0894 31.2057 33.4826 31.4807 33.9911C31.7557 34.4875 31.8932 35.0816 31.8932 35.7714C31.8932 36.4612 31.7557 37.0496 31.4807 37.5702Z" fill="white"/>
<path d="M43.1224 31.3193C42.5375 31.0163 41.8564 30.8647 41.08 30.8647C40.2202 30.8647 39.4676 31.0404 38.8223 31.3919C38.341 31.654 37.9524 31.9943 37.6581 32.4117V30.9559H36.0099V40.5859H37.7296V35.6254C37.7296 34.9226 37.8488 34.3351 38.088 33.8628C38.3392 33.3906 38.6912 33.0327 39.1449 32.791C39.5987 32.5483 40.1304 32.4275 40.7399 32.4275C41.5521 32.4275 42.1791 32.6636 42.6209 33.1358C43.0747 33.6081 43.302 34.3109 43.302 35.2433V40.585H45.0217V35.0435C45.0217 34.0989 44.8549 33.3171 44.5203 32.6998C44.1857 32.0816 43.72 31.6215 43.1224 31.3193Z" fill="white"/>
<path d="M50.5336 28.866C50.7967 28.575 51.1789 28.43 51.6803 28.43C51.9315 28.43 52.1698 28.4728 52.3972 28.5573C52.6245 28.6299 52.8271 28.7386 53.0067 28.8846L53.5265 27.558C53.2872 27.3646 52.9948 27.2252 52.6483 27.1397C52.3137 27.043 51.9617 26.9946 51.5914 26.9946C50.5877 26.9946 49.8122 27.2791 49.2622 27.849C48.725 28.4058 48.4555 29.157 48.4555 30.1024V30.9567H46.8431V32.3921H48.4555V40.5868H50.1752V32.3921H52.8986V30.9567H50.1394V30.121C50.1394 29.5641 50.2705 29.1458 50.5336 28.8669V28.866Z" fill="white"/>
<path d="M14.1346 45.1284H12.3425V57.8477H20.9244V56.2673H14.1346V45.1284Z" fill="white"/>
<path d="M26.1879 48.1265C25.4353 48.1265 24.713 48.2352 24.02 48.4537C23.3389 48.6601 22.7541 48.9622 22.2646 49.3619L22.9814 50.6699C23.3517 50.3548 23.8055 50.1066 24.3426 49.9253C24.8798 49.7319 25.4298 49.6343 25.9908 49.6343C26.8387 49.6343 27.4721 49.8407 27.8901 50.2525C28.3201 50.6523 28.5355 51.2212 28.5355 51.9603V52.3052H25.8121C24.8688 52.3052 24.1162 52.4325 23.5543 52.6863C23.0052 52.941 22.6046 53.2794 22.3535 53.7043C22.1142 54.1282 21.9951 54.6004 21.9951 55.122C21.9951 55.6435 22.1381 56.1576 22.425 56.5936C22.7119 57.0175 23.118 57.3503 23.6432 57.5929C24.1804 57.8356 24.8019 57.9564 25.5068 57.9564C26.3786 57.9564 27.1009 57.7928 27.6747 57.4656C28.0771 57.2276 28.3925 56.931 28.6244 56.5796V57.8467H30.2551V52.0328C30.2551 50.7127 29.9031 49.731 29.1982 49.0896C28.4933 48.4472 27.4905 48.1265 26.1879 48.1265ZM27.4776 56.1762C27.0001 56.4672 26.4381 56.6122 25.7937 56.6122C25.1493 56.6122 24.6231 56.4727 24.2528 56.1938C23.8825 55.9029 23.6973 55.5217 23.6973 55.0495C23.6973 54.6376 23.8467 54.2862 24.1456 53.9953C24.4444 53.7043 25.0237 53.5593 25.8836 53.5593H28.5355V54.9035C28.3201 55.4604 27.9681 55.8843 27.4786 56.1752L27.4776 56.1762Z" fill="white"/>
<path d="M36.8955 56.4851C36.4179 56.4851 36.0475 56.3456 35.7845 56.0667C35.5333 55.7879 35.4086 55.3881 35.4086 54.8675V49.6532H38.132V48.2178H35.4086V46.1104H33.689V48.2178H32.0765V49.6532H33.689V54.941C33.689 55.9096 33.952 56.6552 34.4773 57.1758C35.0025 57.6964 35.7432 57.9567 36.6993 57.9567C37.0935 57.9567 37.4693 57.9018 37.8277 57.7931C38.198 57.6843 38.5143 57.5142 38.7774 57.2846L38.2402 56.0305C37.8818 56.3336 37.4335 56.4851 36.8964 56.4851H36.8955Z" fill="white"/>
<path d="M44.314 48.1265C43.5615 48.1265 42.8391 48.2352 42.1461 48.4537C41.465 48.6601 40.8802 48.9622 40.3907 49.3619L41.1075 50.6699C41.4779 50.3548 41.9316 50.1066 42.4688 49.9253C43.006 49.7319 43.556 49.6343 44.117 49.6343C44.9649 49.6343 45.5983 49.8407 46.0163 50.2525C46.4462 50.6523 46.6616 51.2212 46.6616 51.9603V52.3052H43.9382C42.995 52.3052 42.2424 52.4325 41.6805 52.6863C41.1314 52.941 40.7308 53.2794 40.4796 53.7043C40.2404 54.1282 40.1212 54.6004 40.1212 55.122C40.1212 55.6435 40.2642 56.1576 40.5511 56.5936C40.838 57.0175 41.2441 57.3503 41.7694 57.5929C42.3065 57.8356 42.928 57.9564 43.633 57.9564C44.5047 57.9564 45.228 57.7928 45.8009 57.4656C46.2033 57.2276 46.5186 56.931 46.7505 56.5796V57.8467H48.3813V52.0328C48.3813 50.7127 48.0293 49.731 47.3244 49.0896C46.6195 48.4472 45.6166 48.1265 44.314 48.1265ZM45.6038 56.1762C45.1262 56.4672 44.5643 56.6122 43.9199 56.6122C43.2755 56.6122 42.7493 56.4727 42.379 56.1938C42.0086 55.9029 41.8235 55.5217 41.8235 55.0495C41.8235 54.6376 41.9729 54.2862 42.2717 53.9953C42.5705 53.7043 43.1499 53.5593 44.0097 53.5593H46.6616V54.9035C46.4462 55.4604 46.0942 55.8843 45.6047 56.1752L45.6038 56.1762Z" fill="white"/>
<path d="M66.8292 49.9616C66.5065 49.3434 66.0528 48.8832 65.468 48.5811C64.8831 48.278 64.2075 48.1265 63.443 48.1265C62.4879 48.1265 61.6519 48.3505 60.935 48.7986C60.4538 49.0998 60.0725 49.467 59.7846 49.8993C59.5527 49.4512 59.2383 49.0896 58.8386 48.8172C58.1814 48.357 57.3995 48.1265 56.492 48.1265C55.6679 48.1265 54.9455 48.3022 54.324 48.6536C53.8657 48.9129 53.4963 49.2485 53.213 49.6594V48.2176H51.5649V57.8477H53.2845V52.8871C53.2845 52.1843 53.4037 51.5968 53.643 51.1245C53.8822 50.6523 54.2159 50.2944 54.6467 50.0527C55.0766 49.81 55.5725 49.6892 56.1335 49.6892C56.9219 49.6892 57.525 49.9253 57.943 50.3976C58.373 50.8698 58.5884 51.5726 58.5884 52.505V57.8467H60.308V52.8862C60.308 52.1834 60.4217 51.5959 60.6481 51.1236C60.8874 50.6514 61.221 50.2934 61.6519 50.0517C62.0818 49.8091 62.5832 49.6883 63.157 49.6883C63.9335 49.6883 64.5366 49.9244 64.9665 50.3966C65.3965 50.8689 65.6119 51.5717 65.6119 52.5041V57.8458H67.3315V52.3042C67.3315 51.3597 67.1647 50.5779 66.8301 49.9606L66.8292 49.9616Z" fill="white"/>
<path d="M107.984 33.9102H93.1394L80.1511 46.9966L87.5706 54.4728L107.984 33.9102Z" fill="url(#paint0_linear_44_4614)"/>
<path d="M76.4386 43.259L69.0154 35.7801L93.1394 11.4775H107.984L76.4386 43.259Z" fill="url(#paint1_linear_44_4614)"/>
<path d="M87.5715 54.4732L93.1394 60.0835H107.984L94.9956 46.9971L87.5715 54.4732Z" fill="url(#paint2_linear_44_4614)"/>
<path d="M37.6865 65.3555H10.4615V65.8101H37.6865V65.3555Z" fill="white"/>
<path d="M108.106 65.3555H80.8807V65.8101H108.106V65.3555Z" fill="white"/>
<path d="M41.5411 63.9044H40.4062V66.8625H39.9891V63.9044H38.8543V63.5288H41.5401V63.9044H41.5411Z" fill="white"/>
<path d="M44.2452 66.4869V66.8625H42.0131V63.5288H44.203V63.9044H42.4293V64.9846H43.9711V65.337H42.4293V66.4878H44.2443L44.2452 66.4869Z" fill="white"/>
<path d="M44.8145 66.8625V63.5288H46.2225C46.3673 63.5288 46.5011 63.5595 46.623 63.6208C46.745 63.6822 46.8504 63.7631 46.9384 63.8653C47.0264 63.9667 47.0951 64.081 47.1446 64.2084C47.1941 64.3348 47.2189 64.464 47.2189 64.596C47.2189 64.7122 47.2024 64.8238 47.1703 64.9316C47.1382 65.0395 47.0915 65.1371 47.031 65.2254C46.9705 65.3128 46.898 65.3881 46.8137 65.4504C46.7285 65.5127 46.634 65.5582 46.5286 65.5861L47.3252 66.8634H46.8531L46.1033 65.666H45.2325V66.8634H44.8154L44.8145 66.8625ZM45.2306 65.2895H46.2261C46.3123 65.2895 46.3902 65.2709 46.4599 65.2328C46.5295 65.1956 46.5891 65.1445 46.6377 65.0804C46.6872 65.0162 46.7257 64.9419 46.7532 64.8573C46.7807 64.7727 46.7945 64.6853 46.7945 64.5942C46.7945 64.5031 46.778 64.412 46.7459 64.3292C46.7138 64.2465 46.6698 64.1731 46.6166 64.1089C46.5625 64.0448 46.4993 63.9946 46.4269 63.9583C46.3545 63.922 46.2775 63.9044 46.1977 63.9044H45.2297V65.2895H45.2306Z" fill="white"/>
<path d="M47.6433 65.1714C47.6433 64.9715 47.6781 64.7717 47.7478 64.5727C47.8175 64.3738 47.9192 64.1953 48.0531 64.0373C48.1869 63.8792 48.3519 63.7519 48.5462 63.6543C48.7406 63.5566 48.9615 63.5083 49.2081 63.5083C49.5014 63.5083 49.7526 63.5752 49.9625 63.71C50.1724 63.8448 50.3282 64.0196 50.43 64.2362L50.1009 64.4519C50.0514 64.3459 49.9918 64.2567 49.9231 64.1841C49.8534 64.1126 49.7782 64.054 49.6957 64.0103C49.6141 63.9666 49.5298 63.935 49.4436 63.9164C49.3575 63.8978 49.2722 63.8885 49.1888 63.8885C49.0064 63.8885 48.8451 63.9266 48.7048 64.0038C48.5646 64.081 48.4463 64.1804 48.351 64.3041C48.2556 64.4277 48.1832 64.5672 48.1356 64.7224C48.0879 64.8777 48.0641 65.0329 48.0641 65.19C48.0641 65.3657 48.0925 65.5321 48.1493 65.6902C48.2061 65.8482 48.2859 65.9886 48.3876 66.1103C48.4894 66.2321 48.6095 66.3297 48.7488 66.4013C48.8881 66.4738 49.0394 66.5092 49.2026 66.5092C49.2887 66.5092 49.3776 66.498 49.4684 66.4766C49.5591 66.4543 49.6462 66.4199 49.7296 66.3706C49.8131 66.3223 49.891 66.261 49.9634 66.1875C50.0358 66.1141 50.0954 66.0258 50.1412 65.9226L50.4886 66.115C50.4364 66.2405 50.3631 66.3502 50.2686 66.4459C50.1742 66.5417 50.0679 66.6217 49.9487 66.6877C49.8296 66.7537 49.704 66.8039 49.5711 66.8383C49.4381 66.8727 49.3089 66.8903 49.1824 66.8903C48.9569 66.8903 48.7506 66.8401 48.5618 66.7397C48.3739 66.6393 48.2107 66.5092 48.0732 66.3474C47.9357 66.1866 47.8294 66.0034 47.7533 65.798C47.6772 65.5925 47.6396 65.3843 47.6396 65.1714H47.6433Z" fill="white"/>
<path d="M53.246 66.4869V66.8625H51.0139V63.5288H53.2038V63.9044H51.4301V64.9846H52.9719V65.337H51.4301V66.4878H53.2451L53.246 66.4869Z" fill="white"/>
<path d="M53.8152 66.8625V63.5288H55.2232C55.3681 63.5288 55.5019 63.5595 55.6238 63.6208C55.7457 63.6822 55.8512 63.7631 55.9392 63.8653C56.0272 63.9667 56.0959 64.081 56.1454 64.2084C56.1949 64.3348 56.2197 64.464 56.2197 64.596C56.2197 64.7122 56.2032 64.8238 56.1711 64.9316C56.139 65.0395 56.0922 65.1371 56.0317 65.2254C55.9712 65.3128 55.8988 65.3881 55.8145 65.4504C55.7292 65.5127 55.6348 65.5582 55.5294 65.5861L56.326 66.8634H55.8539L55.1041 65.666H54.2332V66.8634H53.8162L53.8152 66.8625ZM54.2323 65.2895H55.2278C55.314 65.2895 55.3919 65.2709 55.4616 65.2328C55.5312 65.1956 55.5908 65.1445 55.6394 65.0804C55.6889 65.0162 55.7274 64.9419 55.7549 64.8573C55.7824 64.7727 55.7962 64.6853 55.7962 64.5942C55.7962 64.5031 55.7797 64.412 55.7476 64.3292C55.7155 64.2465 55.6715 64.1731 55.6183 64.1089C55.5642 64.0448 55.501 63.9946 55.4286 63.9583C55.3562 63.922 55.2792 63.9044 55.1994 63.9044H54.2314V65.2895H54.2323Z" fill="white"/>
<path d="M57.8578 63.5278H58.2097L59.5527 66.8615H59.1081L58.7194 65.8845H57.3398L56.9558 66.8615H56.5112L57.8587 63.5278H57.8578ZM58.6259 65.5572L58.0328 64.0168L57.4214 65.5572H58.625H58.6259Z" fill="white"/>
<path d="M63.2514 66.4869V66.8625H61.0193V63.5288H63.2092V63.9044H61.4355V64.9846H62.9773V65.337H61.4355V66.4878H63.2505L63.2514 66.4869Z" fill="white"/>
<path d="M63.8215 66.8625V63.5288H64.9609C65.2231 63.5288 65.4541 63.5725 65.653 63.6599C65.8519 63.7473 66.0179 63.8663 66.1508 64.0169C66.2837 64.1675 66.3827 64.3432 66.4496 64.5449C66.5156 64.7466 66.5495 64.9623 66.5495 65.191C66.5495 65.4448 66.5129 65.6744 66.4386 65.8789C66.3644 66.0844 66.258 66.2591 66.1196 66.4051C65.9803 66.5511 65.8135 66.6635 65.6173 66.7435C65.4211 66.8234 65.203 66.8634 64.9619 66.8634H63.8225L63.8215 66.8625ZM66.127 65.191C66.127 65.0032 66.1013 64.8303 66.0509 64.6723C65.9995 64.5142 65.9244 64.3785 65.8235 64.266C65.7236 64.1535 65.6008 64.0652 65.455 64.0011C65.3102 63.9369 65.1452 63.9044 64.96 63.9044H64.2377V66.4869H64.96C65.1479 66.4869 65.3157 66.4544 65.4624 66.3884C65.609 66.3224 65.731 66.2322 65.8281 66.116C65.9253 65.9998 65.9995 65.8631 66.0499 65.7051C66.1004 65.5471 66.126 65.376 66.126 65.191H66.127Z" fill="white"/>
<path d="M67.1362 66.8625V63.5288H67.5533V66.8625H67.1362Z" fill="white"/>
<path d="M68.1271 65.1714C68.1271 64.9715 68.162 64.7717 68.2316 64.5727C68.3013 64.3738 68.4031 64.1953 68.5369 64.0373C68.6707 63.8792 68.8357 63.7519 69.0301 63.6543C69.2244 63.5576 69.4453 63.5083 69.6919 63.5083C69.9852 63.5083 70.2364 63.5752 70.4463 63.71C70.6562 63.8448 70.8121 64.0196 70.9138 64.2362L70.5847 64.4519C70.5352 64.3459 70.4756 64.2567 70.406 64.1841C70.3363 64.1126 70.2611 64.054 70.1796 64.0103C70.098 63.9666 70.0136 63.935 69.9275 63.9164C69.8413 63.8978 69.7561 63.8885 69.6726 63.8885C69.4902 63.8885 69.3289 63.9266 69.1886 64.0038C69.0484 64.081 68.9301 64.1804 68.8348 64.3041C68.7395 64.4277 68.6671 64.5672 68.6194 64.7224C68.5717 64.8777 68.5479 65.0329 68.5479 65.19C68.5479 65.3657 68.5763 65.5321 68.6331 65.6902C68.69 65.8482 68.7697 65.9886 68.8715 66.1103C68.9732 66.2321 69.0933 66.3297 69.2326 66.4013C69.372 66.4738 69.5232 66.5092 69.6864 66.5092C69.7726 66.5092 69.8615 66.498 69.9522 66.4766C70.043 66.4552 70.131 66.4199 70.2135 66.3706C70.2969 66.3223 70.3748 66.261 70.4472 66.1875C70.5196 66.1141 70.5792 66.0258 70.6251 65.9226L70.9725 66.115C70.9202 66.2405 70.8469 66.3502 70.7525 66.4459C70.6581 66.5417 70.5517 66.6217 70.4335 66.6877C70.3143 66.7537 70.1887 66.8039 70.0558 66.8383C69.9229 66.8727 69.7936 66.8903 69.6671 66.8903C69.4416 66.8903 69.2354 66.8401 69.0466 66.7397C68.8586 66.6393 68.6955 66.5092 68.558 66.3474C68.4205 66.1866 68.3141 66.0034 68.2381 65.798C68.162 65.5925 68.1244 65.3843 68.1244 65.1714H68.1271Z" fill="white"/>
<path d="M71.4977 66.8625V63.5288H71.9148V66.8625H71.4977Z" fill="white"/>
<path d="M74.0351 66.8857C73.8031 66.8857 73.5932 66.8383 73.4035 66.7425C73.2137 66.6468 73.0506 66.5204 72.9149 66.3623C72.7792 66.2043 72.6738 66.0239 72.6005 65.8203C72.5262 65.6167 72.4896 65.4085 72.4896 65.1956C72.4896 64.9827 72.529 64.7605 72.6078 64.557C72.6866 64.3534 72.7957 64.174 72.9341 64.0168C73.0726 63.8607 73.2376 63.7361 73.4273 63.6431C73.6171 63.5511 73.8233 63.5046 74.0451 63.5046C74.267 63.5046 74.487 63.5539 74.6749 63.6524C74.8628 63.751 75.0251 63.8802 75.1607 64.0401C75.2964 64.2 75.4018 64.3803 75.4751 64.5821C75.5485 64.7838 75.5861 64.9902 75.5861 65.1993C75.5861 65.4215 75.5466 65.6344 75.4678 65.838C75.389 66.0416 75.2808 66.221 75.1433 66.3753C75.0058 66.5306 74.8426 66.6542 74.6529 66.7463C74.4631 66.8383 74.2569 66.8848 74.0351 66.8848V66.8857ZM72.9103 65.1956C72.9103 65.3648 72.9369 65.5284 72.991 65.6865C73.0451 65.8445 73.1211 65.9849 73.2201 66.1067C73.3191 66.2284 73.4374 66.3261 73.5767 66.3976C73.7161 66.4702 73.8701 66.5055 74.0396 66.5055C74.2092 66.5055 74.3733 66.4674 74.5117 66.3902C74.6501 66.313 74.7684 66.2136 74.8656 66.0899C74.9627 65.9663 75.037 65.8259 75.0874 65.6697C75.1387 65.5136 75.1635 65.3555 75.1635 65.1956C75.1635 65.0264 75.136 64.8628 75.0828 64.7048C75.0287 64.5467 74.9517 64.4073 74.8509 64.2864C74.751 64.1656 74.6318 64.0698 74.4943 63.9973C74.3568 63.9248 74.2046 63.8895 74.0387 63.8895C73.8627 63.8895 73.7051 63.9267 73.5666 64.002C73.4273 64.0773 73.31 64.1758 73.2128 64.2976C73.1156 64.4194 73.0405 64.5588 72.9882 64.7159C72.936 64.8721 72.9094 65.032 72.9094 65.1947L72.9103 65.1956ZM74.1139 63.129L73.8453 63.0351L74.1139 62.561H74.5218L74.1139 63.129Z" fill="white"/>
<path d="M76.5816 64.3171V66.8625H76.1645V63.5288H76.489L78.5267 66.1253V63.5335H78.9438V66.8625H78.5918L76.5825 64.3171H76.5816Z" fill="white"/>
<path d="M16.8269 78.8185C16.5253 79.0073 16.2008 79.1541 15.8524 79.2601C15.5041 79.3661 15.1329 79.4191 14.7387 79.4191C14.1355 79.4191 13.5883 79.2973 13.0969 79.0547C12.6056 78.812 12.1839 78.4941 11.8319 78.1018C11.4799 77.7095 11.2077 77.2586 11.0143 76.7482C10.8209 76.2388 10.7246 75.7173 10.7246 75.1837C10.7246 74.6501 10.8273 74.0932 11.0317 73.5838C11.2361 73.0743 11.5194 72.6234 11.8787 72.2302C12.238 71.8379 12.6652 71.5265 13.1611 71.295C13.6561 71.0635 14.1933 70.9482 14.7735 70.9482C15.3538 70.9482 15.912 71.0719 16.4034 71.3192C16.8947 71.5665 17.3145 71.89 17.6619 72.2897C18.0103 72.6895 18.2807 73.145 18.4741 73.6544C18.6675 74.1648 18.7638 74.6817 18.7638 75.2078C18.7638 75.734 18.6694 76.2667 18.4796 76.7613C18.2899 77.2558 18.0249 77.6946 17.6849 78.0795L18.8105 79.3624H17.3026L16.8269 78.8213V78.8185ZM14.7506 77.9828C14.9596 77.9828 15.1549 77.9577 15.3364 77.9066C15.5179 77.8554 15.6865 77.7866 15.8414 77.7011L14.5884 76.2658H16.0963L16.6646 76.9128C16.8195 76.6618 16.9387 76.3875 17.0239 76.0891C17.1092 75.7907 17.1514 75.4886 17.1514 75.1827C17.1514 74.822 17.0954 74.4725 16.9827 74.136C16.8709 73.7985 16.7123 73.501 16.5069 73.2417C16.3016 72.9832 16.0504 72.775 15.7525 72.6179C15.4546 72.4608 15.12 72.3827 14.7488 72.3827C14.3775 72.3827 14.0182 72.4635 13.7166 72.6234C13.415 72.7843 13.1639 72.9981 12.9622 73.2649C12.7605 73.5317 12.6084 73.832 12.5039 74.1648C12.3994 74.4985 12.3471 74.8378 12.3471 75.1827C12.3471 75.5276 12.4012 75.893 12.5094 76.2295C12.6175 76.567 12.7743 76.8644 12.9796 77.1238C13.184 77.3832 13.4361 77.5905 13.734 77.7476C14.0319 77.9047 14.3702 77.9828 14.7488 77.9828H14.7506Z" fill="white"/>
<path d="M23.4635 77.9828C23.8421 77.9828 24.1611 77.9047 24.4205 77.7476C24.6799 77.5905 24.888 77.3869 25.0466 77.1359C25.2052 76.8849 25.317 76.5967 25.383 76.2713C25.449 75.9459 25.482 75.6103 25.482 75.2654V71.0059H27.0715V75.2654C27.0715 75.8381 27.0037 76.3754 26.8689 76.8774C26.7333 77.3794 26.5206 77.8192 26.2309 78.1957C25.9413 78.5722 25.5673 78.8706 25.1117 79.09C24.6552 79.3094 24.1098 79.4191 23.4754 79.4191C22.8411 79.4191 22.259 79.3038 21.7988 79.0723C21.3387 78.8408 20.9656 78.535 20.6796 78.1548C20.3936 77.7745 20.1864 77.333 20.059 76.831C19.9316 76.3289 19.8674 75.8074 19.8674 75.2664V71.0068H21.4688V75.2664C21.4688 75.6196 21.5018 75.959 21.5678 76.2843C21.6338 76.6097 21.7457 76.8979 21.9043 77.1489C22.0628 77.3999 22.27 77.6016 22.5248 77.755C22.7797 77.9084 23.0932 77.9846 23.4644 77.9846L23.4635 77.9828Z" fill="white"/>
<path d="M28.6849 79.3595V71.0049H30.2863V79.3595H28.6849Z" fill="white"/>
<path d="M38.1641 72.4291H35.5305V79.3596H33.941V72.4291H31.3074V71.0059H38.1641V72.4291Z" fill="white"/>
<path d="M42.3176 79.4181C41.7144 79.4181 41.1671 79.2982 40.6758 79.0593C40.1845 78.8203 39.7628 78.5024 39.4108 78.1064C39.0588 77.7104 38.7866 77.2576 38.5931 76.7473C38.3997 76.2378 38.3035 75.7163 38.3035 75.1827C38.3035 74.6491 38.4061 74.0922 38.6106 73.5828C38.815 73.0733 39.0982 72.6225 39.4575 72.2292C39.8169 71.8369 40.2441 71.5255 40.74 71.294C41.235 71.0625 41.7721 70.9473 42.3524 70.9473C42.9326 70.9473 43.4909 71.0709 43.9822 71.3182C44.4736 71.5655 44.8934 71.889 45.2408 72.2887C45.5891 72.6885 45.8596 73.144 46.053 73.6534C46.2464 74.1638 46.3426 74.6807 46.3426 75.2068C46.3426 75.7637 46.2418 76.2955 46.0411 76.8012C45.8394 77.3069 45.5616 77.7541 45.206 78.1426C44.8503 78.5312 44.425 78.8408 43.93 79.0723C43.435 79.3038 42.8969 79.419 42.3176 79.419V79.4181ZM39.9278 75.1827C39.9278 75.5434 39.9819 75.8929 40.09 76.2294C40.1982 76.5669 40.355 76.8644 40.5603 77.1238C40.7647 77.3831 41.0168 77.5904 41.3147 77.7475C41.6126 77.9047 41.9509 77.9827 42.3295 77.9827C42.7081 77.9827 43.0582 77.9028 43.3561 77.742C43.6541 77.5811 43.9052 77.3673 44.1106 77.1005C44.315 76.8337 44.4699 76.5344 44.5744 76.2006C44.6789 75.8669 44.7311 75.5285 44.7311 75.1827C44.7311 74.8369 44.6752 74.4724 44.5625 74.1359C44.4506 73.7985 44.2921 73.501 44.0867 73.2416C43.8814 72.9832 43.6302 72.7768 43.3323 72.6243C43.0344 72.4709 42.6998 72.3947 42.3286 72.3947C41.9573 72.3947 41.598 72.4756 41.2964 72.6355C40.9948 72.7963 40.7436 73.0083 40.542 73.2704C40.3403 73.5335 40.1881 73.831 40.0836 74.1647C39.9791 74.4985 39.9269 74.8378 39.9269 75.1827H39.9278Z" fill="white"/>
<path d="M47.3299 80.7124L47.6434 79.3124H47.1557V77.665H48.5014V79.3124L48.0256 80.7124H47.3299Z" fill="white"/>
<path d="M58.5379 77.9353V79.3595H52.8179V71.0049H58.4334V72.4282H54.4193V74.4399H57.888V75.7581H54.4193V77.9353H58.5379Z" fill="white"/>
<path d="M59.1173 75.1233C59.1173 74.6138 59.2081 74.109 59.3896 73.6117C59.5711 73.1134 59.836 72.6681 60.1843 72.2758C60.5326 71.8835 60.958 71.5655 61.4603 71.3229C61.9626 71.0803 62.5356 70.9585 63.1772 70.9585C63.9353 70.9585 64.5907 71.1277 65.1444 71.4642C65.6971 71.8017 66.1096 72.2405 66.3801 72.7824L65.1499 73.6414C65.0417 73.4062 64.9097 73.2082 64.7557 73.0474C64.6008 72.8866 64.4349 72.7592 64.2571 72.6653C64.0792 72.5714 63.8931 72.5026 63.6997 72.4599C63.5063 72.4171 63.3166 72.3948 63.1314 72.3948C62.729 72.3948 62.3788 72.4775 62.0818 72.6421C61.7839 72.8066 61.5364 73.0204 61.3393 73.2835C61.1422 73.5466 60.9928 73.8441 60.8929 74.1778C60.7921 74.5116 60.7416 74.8425 60.7416 75.1725C60.7416 75.5416 60.7994 75.8958 60.9158 76.2379C61.0322 76.5791 61.1963 76.8793 61.409 77.1378C61.6216 77.3962 61.8765 77.6045 62.1744 77.7616C62.4723 77.9187 62.7986 77.9968 63.1552 77.9968C63.3413 77.9968 63.5338 77.9735 63.7355 77.9261C63.9362 77.8787 64.1278 77.8043 64.3102 77.7021C64.4917 77.5998 64.6604 77.4687 64.8153 77.3079C64.9702 77.1471 65.094 76.9528 65.1866 76.726L66.4974 77.491C66.3654 77.8053 66.1784 78.0814 65.9346 78.3203C65.6907 78.5592 65.4166 78.7619 65.1105 78.9264C64.8052 79.0909 64.478 79.2164 64.1296 79.3029C63.7813 79.3894 63.4412 79.4321 63.1085 79.4321C62.5209 79.4321 61.9828 79.3066 61.4961 79.0556C61.0084 78.8046 60.5895 78.4774 60.2375 78.073C59.8855 77.6695 59.6114 77.2103 59.4134 76.6962C59.2163 76.1821 59.1173 75.6587 59.1173 75.1251V75.1233Z" fill="white"/>
<path d="M71.0559 77.9828C71.4345 77.9828 71.7535 77.9047 72.0129 77.7476C72.2723 77.5905 72.4804 77.3869 72.639 77.1359C72.7976 76.8849 72.9094 76.5967 72.9754 76.2713C73.0414 75.9459 73.0744 75.6103 73.0744 75.2654V71.0059H74.6639V75.2654C74.6639 75.8381 74.5961 76.3754 74.4613 76.8774C74.3257 77.3794 74.113 77.8192 73.8233 78.1957C73.5328 78.5722 73.1597 78.8706 72.7041 79.09C72.2476 79.3094 71.7022 79.4191 71.0678 79.4191C70.4335 79.4191 69.8514 79.3038 69.3913 79.0723C68.9311 78.8408 68.558 78.535 68.272 78.1548C67.986 77.7745 67.7788 77.333 67.6514 76.831C67.524 76.3289 67.4598 75.8074 67.4598 75.2664V71.0068H69.0613V75.2664C69.0613 75.6196 69.0943 75.959 69.1603 76.2843C69.2263 76.6097 69.3381 76.8979 69.4967 77.1489C69.6553 77.3999 69.8624 77.6016 70.1173 77.755C70.373 77.9084 70.6856 77.9846 71.0568 77.9846L71.0559 77.9828Z" fill="white"/>
<path d="M78.2728 71.0049H79.6882L82.8204 79.3595H81.1732L80.4077 77.2771H77.5303L76.7759 79.3595H75.1287L78.2728 71.0049ZM80.1181 76.1355L78.9814 72.853L77.798 76.1355H80.1181Z" fill="white"/>
<path d="M83.7261 79.3595V71.0049H86.72C87.3928 71.0049 87.9822 71.1146 88.4891 71.334C88.9961 71.5534 89.4196 71.8518 89.7596 72.2283C90.0997 72.6048 90.3555 73.0464 90.5251 73.5521C90.6956 74.0578 90.7799 74.5979 90.7799 75.1696C90.7799 75.8046 90.6855 76.38 90.4957 76.8932C90.306 77.4073 90.0337 77.8461 89.6781 78.2114C89.3224 78.5758 88.8952 78.8584 88.3956 79.0583C87.8961 79.2582 87.3378 79.3586 86.7191 79.3586H83.7252L83.7261 79.3595ZM89.1675 75.1706C89.1675 74.7708 89.1134 74.4018 89.0052 74.0643C88.8971 73.7269 88.7385 73.4368 88.5295 73.1932C88.3205 72.9506 88.0638 72.7619 87.7576 72.628C87.4524 72.4951 87.1059 72.4282 86.7191 72.4282H85.3266V77.9353H86.7191C87.1132 77.9353 87.4634 77.8647 87.7696 77.7234C88.0748 77.582 88.3306 77.3878 88.535 77.1414C88.7394 76.8941 88.8961 76.6022 89.0052 76.2648C89.1134 75.9273 89.1675 75.5629 89.1675 75.1706Z" fill="white"/>
<path d="M95.5484 79.4181C94.9452 79.4181 94.398 79.2982 93.9066 79.0593C93.4153 78.8203 92.9936 78.5024 92.6416 78.1064C92.2896 77.7104 92.0165 77.2576 91.824 76.7473C91.6305 76.2378 91.5343 75.7163 91.5343 75.1827C91.5343 74.6491 91.637 74.0922 91.8414 73.5828C92.0458 73.0733 92.329 72.6225 92.6884 72.2292C93.0477 71.8369 93.4749 71.5255 93.9708 71.294C94.4658 71.0625 95.003 70.9473 95.5832 70.9473C96.1635 70.9473 96.7217 71.0709 97.2131 71.3182C97.7044 71.5655 98.1242 71.889 98.4716 72.2887C98.8191 72.6885 99.0904 73.144 99.2838 73.6534C99.4772 74.1638 99.5735 74.6807 99.5735 75.2068C99.5735 75.7637 99.4726 76.2955 99.2719 76.8012C99.0702 77.3069 98.7925 77.7541 98.4368 78.1426C98.0811 78.5312 97.6558 78.8408 97.1608 79.0723C96.6658 79.3038 96.1286 79.419 95.5484 79.419V79.4181ZM93.1586 75.1827C93.1586 75.5434 93.2127 75.8929 93.3209 76.2294C93.4291 76.5669 93.5858 76.8644 93.7911 77.1238C93.9956 77.3831 94.2476 77.5904 94.5456 77.7475C94.8435 77.9047 95.1817 77.9827 95.5612 77.9827C95.9407 77.9827 96.29 77.9028 96.5879 77.742C96.8858 77.5811 97.137 77.3673 97.3423 77.1005C97.5476 76.8337 97.7016 76.5344 97.8061 76.2006C97.9106 75.8669 97.9629 75.5285 97.9629 75.1827C97.9629 74.8369 97.907 74.4724 97.7951 74.1359C97.6833 73.7985 97.5238 73.501 97.3194 73.2416C97.1141 72.9832 96.8629 72.7768 96.565 72.6243C96.2671 72.4709 95.9325 72.3947 95.5612 72.3947C95.19 72.3947 94.8306 72.4756 94.5291 72.6355C94.2275 72.7963 93.9763 73.0083 93.7746 73.2704C93.5739 73.5335 93.4208 73.831 93.3163 74.1647C93.2118 74.4985 93.1596 74.8378 93.1596 75.1827H93.1586Z" fill="white"/>
<path d="M100.805 79.3595V71.0049H104.447C104.826 71.0049 105.176 71.0858 105.498 71.2457C105.819 71.4065 106.096 71.6184 106.327 71.8806C106.559 72.1437 106.741 72.4412 106.873 72.7749C107.004 73.1086 107.07 73.4433 107.07 73.7808C107.07 74.3218 106.936 74.8145 106.669 75.257C106.403 75.7005 106.041 76.0203 105.585 76.2164L107.464 79.3577H105.666L103.984 76.5576H102.406V79.3577H100.805V79.3595ZM102.406 75.1353H104.413C104.56 75.1353 104.698 75.0999 104.825 75.0293C104.952 74.9586 105.062 74.8629 105.156 74.7411C105.249 74.6193 105.322 74.4761 105.377 74.3116C105.431 74.1471 105.458 73.9704 105.458 73.7817C105.458 73.593 105.427 73.4052 105.366 73.2407C105.304 73.0761 105.221 72.9329 105.117 72.8112C105.012 72.6894 104.892 72.5955 104.757 72.5286C104.622 72.4616 104.485 72.4282 104.346 72.4282H102.408V75.1343L102.406 75.1353Z" fill="white"/>
<defs>
<linearGradient id="paint0_linear_44_4614" x1="108.324" y1="26.7343" x2="80.4935" y2="53.0233" gradientUnits="userSpaceOnUse">
<stop stop-color="white"/>
<stop offset="0.27" stop-color="#36A9E1"/>
<stop offset="1" stop-color="#1D71B8"/>
</linearGradient>
<linearGradient id="paint1_linear_44_4614" x1="16.0853" y1="65.8175" x2="111.549" y2="13.8719" gradientUnits="userSpaceOnUse">
<stop stop-color="white"/>
<stop offset="0.27" stop-color="#FFED00"/>
<stop offset="1" stop-color="#F9B233"/>
</linearGradient>
<linearGradient id="paint2_linear_44_4614" x1="112.527" y1="72.8428" x2="90.8164" y2="50.5667" gradientUnits="userSpaceOnUse">
<stop stop-color="white"/>
<stop offset="0.27" stop-color="#E30613"/>
<stop offset="1" stop-color="#BE1622"/>
</linearGradient>
</defs>
</svg>
