<svg width="332" height="87" viewBox="0 0 332 87" fill="none" xmlns="http://www.w3.org/2000/svg">
<path opacity="0.3" d="M37.5557 0.5C44.3193 0.500071 50.5132 2.08612 56.127 5.2627C61.8098 8.44029 66.2645 12.865 69.4824 18.5293H69.4814C72.7684 24.1961 74.4082 30.5827 74.4082 37.6768C74.4082 43.8756 73.1433 49.5689 70.6104 54.75L70.6113 54.751C68.2238 59.7024 64.9014 63.8469 60.6475 67.1797L75.9141 85.6816L76.5889 86.5H54.3145L54.165 86.2969L45.2373 74.1875C42.6167 74.6969 40.0564 74.955 37.5557 74.9551C30.7907 74.9551 24.5626 73.3688 18.8818 70.1924L18.8799 70.1914C13.2667 67.0145 8.78207 62.5921 5.43066 56.9336L5.42676 56.9277C2.13973 51.1932 0.500012 44.7723 0.5 37.6768C0.5 30.5813 2.13939 24.1931 5.42773 18.5254L5.43066 18.5215C8.78206 12.8631 13.2667 8.44154 18.8799 5.26465L18.8818 5.2627C24.5626 2.08635 30.7908 0.5 37.5557 0.5ZM105.301 1.52148V44.9307C105.301 49.1442 106.329 52.3107 108.312 54.5049C110.283 56.6865 113.202 57.8135 117.155 57.8135C121.108 57.8134 124.065 56.6868 126.105 54.499C128.152 52.3047 129.211 49.1404 129.211 44.9307V1.52148H147.527V44.8281C147.527 51.3006 146.161 56.8101 143.403 61.332C140.654 65.8391 136.938 69.2431 132.261 71.5332C127.662 73.818 122.522 74.955 116.852 74.9551C111.182 74.9551 106.076 73.8527 101.544 71.6357L101.535 71.6318L101.764 71.1865L101.535 71.6309C97.0586 69.3378 93.5118 65.9315 90.9004 61.4248L90.8994 61.4219C88.282 56.8353 86.9854 51.2968 86.9854 44.8281V1.52148H105.301ZM294.647 0.5C301.411 0.500024 307.605 2.08616 313.219 5.2627C318.9 8.43955 323.355 12.863 326.572 18.5254L326.875 19.0586C329.961 24.5929 331.5 30.8028 331.5 37.6768C331.5 44.7723 329.86 51.1932 326.573 56.9277L326.572 56.9297C323.288 62.5903 318.836 67.0139 313.222 70.1914C307.607 73.369 301.412 74.9551 294.647 74.9551C287.882 74.9551 281.654 73.3688 275.974 70.1924L275.972 70.1914C270.358 67.0145 265.874 62.5921 262.522 56.9336L262.519 56.9277C259.232 51.1933 257.592 44.7722 257.592 37.6768C257.592 30.5813 259.232 24.1931 262.521 18.5254L262.522 18.5215C265.874 12.8631 270.359 8.44157 275.972 5.26465L275.974 5.2627C281.654 2.08626 287.882 0.5 294.647 0.5ZM181.053 1.52148V74.2402H162.736V1.52148H181.053ZM248.788 1.52148V16.5176H229.953V74.2402H211.638V16.5176H192.804V1.52148H248.788ZM37.5557 17.335C31.9396 17.335 27.4895 19.1613 24.1543 22.7881C20.8822 26.4195 19.2207 31.3636 19.2207 37.6768C19.2207 43.9196 20.8822 48.8655 24.1582 52.5674C27.4931 56.1921 31.9412 58.0176 37.5557 58.0176C43.101 58.0175 47.481 56.1597 50.75 52.4658L50.7529 52.4619C54.0956 48.7589 55.7881 43.8475 55.7881 37.6768C55.7881 31.4359 54.0945 26.5271 50.7559 22.8945L50.75 22.8877C47.481 19.1938 43.101 17.3351 37.5557 17.335ZM294.647 17.335C289.029 17.335 284.58 19.1637 281.244 22.793L281.243 22.792C277.973 26.4231 276.312 31.3658 276.312 37.6768C276.313 43.9157 277.972 48.8594 281.244 52.5605L281.56 52.8955C284.858 56.3024 289.205 58.0176 294.647 58.0176C300.193 58.0175 304.573 56.1596 307.842 52.4658L307.845 52.4619C311.187 48.7589 312.881 43.8475 312.881 37.6768C312.881 31.4359 311.186 26.5271 307.848 22.8945L307.842 22.8877C304.573 19.1938 300.193 17.335 294.647 17.335Z" stroke="#042B59"/>
</svg>
