<svg width="25" height="24" viewBox="0 0 25 24" fill="none" xmlns="http://www.w3.org/2000/svg">
<path d="M10.75 13C10.75 13.69 10.19 14.25 9.5 14.25C8.81 14.25 8.25 13.69 8.25 13C8.25 12.31 8.81 11.75 9.5 11.75C10.19 11.75 10.75 12.31 10.75 13ZM15.5 11.75C14.81 11.75 14.25 12.31 14.25 13C14.25 13.69 14.81 14.25 15.5 14.25C16.19 14.25 16.75 13.69 16.75 13C16.75 12.31 16.19 11.75 15.5 11.75ZM22.5 12C22.5 17.52 18.02 22 12.5 22C6.98 22 2.5 17.52 2.5 12C2.5 6.48 6.98 2 12.5 2C18.02 2 22.5 6.48 22.5 12ZM11.16 4.12C12.56 6.44 15.1 8 18 8C18.46 8 18.91 7.95 19.34 7.88C17.94 5.56 15.4 4 12.5 4C12.04 4 11.59 4.05 11.16 4.12ZM4.92 9.47C6.63 8.5 7.95 6.92 8.58 5.03C6.87 6 5.55 7.58 4.92 9.47ZM20.5 12C20.5 11.22 20.38 10.47 20.17 9.76C19.47 9.91 18.75 10 18 10C14.87 10 12.08 8.56 10.24 6.31C9.19 8.87 7.1 10.88 4.5 11.86C4.51 11.9 4.5 11.95 4.5 12C4.5 16.41 8.09 20 12.5 20C16.91 20 20.5 16.41 20.5 12Z" fill="#344054"/>
</svg>
