<svg width="25" height="24" viewBox="0 0 25 24" fill="none" xmlns="http://www.w3.org/2000/svg">
<path d="M21.3426 17.1447C21.0099 17.9133 20.6161 18.6208 20.1598 19.2713C19.5379 20.158 19.0286 20.7719 18.6362 21.1127C18.0278 21.6722 17.376 21.9587 16.678 21.975C16.1769 21.975 15.5726 21.8324 14.8691 21.5432C14.1634 21.2553 13.5148 21.1127 12.9218 21.1127C12.2998 21.1127 11.6328 21.2553 10.9193 21.5432C10.2047 21.8324 9.6291 21.9832 9.18898 21.9981C8.51963 22.0266 7.85246 21.7319 7.1865 21.1127C6.76145 20.742 6.2298 20.1064 5.59291 19.2061C4.90957 18.2446 4.34778 17.1297 3.90766 15.8587C3.4363 14.4857 3.20001 13.1563 3.20001 11.8692C3.20001 10.3948 3.51859 9.12321 4.15671 8.0576C4.65821 7.20166 5.32539 6.52647 6.16041 6.03081C6.99543 5.53514 7.89768 5.28256 8.86931 5.2664C9.40096 5.2664 10.0981 5.43085 10.9645 5.75405C11.8285 6.07834 12.3832 6.24279 12.6264 6.24279C12.8083 6.24279 13.4245 6.0505 14.4692 5.66714C15.4571 5.31162 16.2909 5.16441 16.974 5.2224C18.8249 5.37178 20.2155 6.10142 21.1403 7.41595C19.4849 8.41896 18.6661 9.82379 18.6824 11.626C18.6973 13.0297 19.2065 14.1979 20.2074 15.1254C20.6609 15.5558 21.1675 15.8885 21.731 16.1248C21.6088 16.4793 21.4798 16.8188 21.3426 17.1447ZM17.0976 0.440125C17.0976 1.54038 16.6956 2.56768 15.8944 3.51854C14.9275 4.64892 13.758 5.30211 12.4898 5.19904C12.4737 5.06705 12.4643 4.92812 12.4643 4.78214C12.4643 3.7259 12.9241 2.59552 13.7407 1.67127C14.1483 1.20331 14.6668 0.814209 15.2955 0.503814C15.9229 0.19805 16.5164 0.0289566 17.0745 0C17.0908 0.147086 17.0976 0.294182 17.0976 0.440111V0.440125Z" fill="white"/>
</svg>
